<svg width="40" height="40" viewBox="0 0 40 40" fill="none" xmlns="http://www.w3.org/2000/svg">
<path d="M40 20C40 31.0457 31.0457 40 20 40C8.9543 40 0 31.0457 0 20C0 8.9543 8.9543 0 20 0C31.0457 0 40 8.9543 40 20Z" fill="#242424"/>
<path fill-rule="evenodd" clip-rule="evenodd" d="M13.5986 12.4949C13.5991 12.37 13.5956 12.3722 13.5995 12.2491C13.6022 12.1624 13.7622 12.1369 14.1874 12.0149C20.0869 10.3222 26.7039 10.6677 27.8065 13.6507C29.2804 17.6385 21.9534 18.916 18.7634 21.3388C16.4849 23.0693 17.303 24.9806 18.8821 25.2373C22.8785 25.887 26.2028 18.4893 26.3883 18.1077C26.4148 18.0532 26.4323 18.0491 27.5347 18.0519C27.6637 18.0522 27.6308 18.1599 27.6308 18.6697C27.6308 28.5909 27.6316 28.5922 27.6243 28.6047C27.6033 28.6406 27.589 28.6363 23.9392 28.6363C22.4196 28.6363 22.366 28.6474 22.3779 28.5777C22.5602 27.5092 24.4957 24.4113 24.8481 23.823C25.8898 22.0839 26.557 20.6665 26.5759 20.554C26.5921 20.4579 26.1642 20.3561 26.1411 20.3632C25.9954 20.4084 24.2368 24.8169 21.0181 27.3539C17.2386 30.3328 12.406 29.0428 12.0295 25.2962C11.2982 18.0194 24.3959 18.1059 26.376 15.4722C27.5406 13.9234 25.0517 12.9197 20.983 13.8506C16.6107 14.8509 13.7045 17.1821 13.6153 17.1693C13.5969 17.1667 13.5986 17.1565 13.5986 12.4949Z" fill="white"/>
</svg>
