<svg width="40" height="40" viewBox="0 0 40 40" fill="none" xmlns="http://www.w3.org/2000/svg">
<path d="M40 20C40 31.0457 31.0457 40 20 40C8.9543 40 0 31.0457 0 20C0 8.9543 8.9543 0 20 0C31.0457 0 40 8.9543 40 20Z" fill="#242424"/>
<path d="M16.7302 23.4574H11.8672L10.8777 26.5387C10.8503 26.653 10.7424 26.7339 10.6251 26.7283H8.162C8.02154 26.7283 7.97242 26.6511 8.01464 26.4966L12.225 14.4134C12.2672 14.287 12.3092 14.1635 12.3514 14.0019C12.4065 13.7208 12.4347 13.4352 12.4356 13.1488C12.4235 13.0641 12.4984 12.9892 12.583 13.0013H15.9302C16.0283 13.0013 16.0844 13.0364 16.0986 13.1066L20.8775 26.5176C20.9196 26.6582 20.8775 26.7284 20.7512 26.7283H18.0144C17.9184 26.7389 17.8267 26.6747 17.8039 26.5808L16.7302 23.4574ZM12.625 20.8592H15.9513C15.4048 19.0374 14.7881 17.2395 14.2882 15.4035C13.7217 17.308 13.1987 19.0743 12.625 20.8592Z" fill="#9999FF"/>
<path d="M24.4317 22.2675C24.6253 23.8322 25.972 24.5781 27.4633 24.5463C28.3041 24.5302 29.2028 24.4028 29.9885 24.0926C30.0586 24.0367 30.0938 24.0716 30.0938 24.198V26.1991C30.1005 26.3032 30.0559 26.3962 29.9675 26.4519C28.9909 26.8847 27.8698 27.0152 26.8106 26.9986C23.6524 26.9986 21.4835 24.8277 21.4844 21.6692C21.4762 18.6761 23.4666 16.1509 26.558 16.1509C29.1785 16.0846 30.9927 18.1315 31 20.6792C31 21.1432 30.9734 21.6088 30.9158 22.0695C30.9046 22.1644 30.8218 22.238 30.7263 22.238C28.6334 22.238 26.5303 22.2675 24.4317 22.2675ZM24.4317 20.3486C25.5981 20.3486 26.7712 20.3888 27.9369 20.3381C28.1121 20.3205 28.2422 20.2882 28.2422 20.1104C28.2179 19.1659 27.4008 18.3891 26.4528 18.4252C25.3072 18.356 24.5741 19.2993 24.4317 20.3486Z" fill="#9999FF"/>
</svg>
