<svg width="24" height="24" viewBox="0 0 24 24" fill="none" xmlns="http://www.w3.org/2000/svg">
<path fill-rule="evenodd" clip-rule="evenodd" d="M17.9999 12.0002C17.9999 12.1991 17.9209 12.3899 17.7802 12.5305C17.6396 12.6712 17.4488 12.7502 17.2499 12.7502H8.56038L11.7809 15.9692C11.8506 16.0389 11.9059 16.1217 11.9437 16.2128C11.9814 16.3039 12.0008 16.4016 12.0008 16.5002C12.0008 16.5988 11.9814 16.6965 11.9437 16.7876C11.9059 16.8787 11.8506 16.9615 11.7809 17.0312C11.7111 17.1009 11.6284 17.1563 11.5373 17.194C11.4461 17.2317 11.3485 17.2512 11.2499 17.2512C11.1513 17.2512 11.0536 17.2317 10.9625 17.194C10.8714 17.1563 10.7886 17.1009 10.7189 17.0312L6.21888 12.5312C6.14903 12.4615 6.09362 12.3788 6.05581 12.2877C6.018 12.1965 5.99854 12.0989 5.99854 12.0002C5.99854 11.9016 6.018 11.8039 6.05581 11.7128C6.09362 11.6216 6.14903 11.5389 6.21888 11.4692L10.7189 6.96922C10.8597 6.82839 11.0507 6.74927 11.2499 6.74927C11.449 6.74927 11.64 6.82839 11.7809 6.96922C11.9217 7.11005 12.0008 7.30105 12.0008 7.50022C12.0008 7.69938 11.9217 7.89039 11.7809 8.03122L8.56038 11.2502H17.2499C17.4488 11.2502 17.6396 11.3292 17.7802 11.4699C17.9209 11.6105 17.9999 11.8013 17.9999 12.0002Z" fill="#5C5C77"/>
</svg>
