<svg width="40" height="40" viewBox="0 0 40 40" fill="none" xmlns="http://www.w3.org/2000/svg">
<path d="M40 20C40 31.0457 31.0457 40 20 40C8.9543 40 0 31.0457 0 20C0 8.9543 8.9543 0 20 0C31.0457 0 40 8.9543 40 20Z" fill="#242424"/>
<path d="M15.8076 21.0764C15.8985 19.4797 16.6926 18.0731 17.8906 17.0759C19.0654 16.0965 20.6467 15.4978 22.3721 15.4978C24.0957 15.4978 25.677 16.0965 26.8527 17.0759C28.0498 18.0731 28.8439 19.4797 28.9357 21.0747C29.0266 22.7153 28.3568 24.2393 27.182 25.369C25.984 26.5182 24.2801 27.2393 22.3721 27.2393C20.4641 27.2393 18.7567 26.5182 17.5596 25.369C16.3839 24.2393 15.7159 22.7153 15.8076 21.0764Z" fill="white"/>
<path d="M19.0047 21.2189C19.0513 20.3996 19.4587 19.6778 20.0734 19.1662C20.6763 18.6636 21.4876 18.3564 22.3729 18.3564C23.2573 18.3564 24.0687 18.6636 24.672 19.1662C25.2862 19.6778 25.6937 20.3996 25.7408 21.218C25.7874 22.0598 25.4438 22.8418 24.8409 23.4215C24.2262 24.0111 23.3519 24.3811 22.3729 24.3811C21.3939 24.3811 20.5179 24.0111 19.9036 23.4215C19.3003 22.8418 18.9576 22.0598 19.0047 21.2189Z" fill="#265787"/>
<path d="M13.6573 22.9018C13.663 23.2231 13.7671 23.8475 13.9232 24.335C14.2513 25.3671 14.8077 26.3218 15.5821 27.1632C16.3767 28.0281 17.3551 28.7227 18.4853 29.216C19.6732 29.7339 20.9603 29.9979 22.2973 29.9957C23.6321 29.994 24.9192 29.7248 26.1071 29.2029C27.2373 28.7049 28.2149 28.0072 29.0082 27.1419C29.782 26.297 30.3376 25.3406 30.6666 24.3085C30.8319 23.7871 30.9364 23.2579 30.9783 22.7269C31.0193 22.2037 31.0021 21.6797 30.9267 21.1561C30.7795 20.1358 30.421 19.1784 29.8689 18.3057C29.364 17.5038 28.7132 16.8018 27.9393 16.2109L27.9411 16.2096L20.1314 10.3053C20.1243 10.3001 20.1186 10.2945 20.1111 10.2897C19.5987 9.90242 18.7371 9.90372 18.1735 10.2919C17.6038 10.6844 17.5386 11.3334 18.0457 11.7429L18.0434 11.745L21.3008 14.3531L11.3727 14.3635H11.3595C10.5389 14.3644 9.75003 14.8945 9.59393 15.5644C9.43342 16.2469 9.99079 16.8131 10.844 16.8161L10.8427 16.8192L15.8748 16.8096L6.89531 23.5961C6.88384 23.6043 6.87149 23.613 6.86091 23.6213C6.01384 24.2599 5.74001 25.3219 6.27356 25.994C6.81505 26.6774 7.96638 26.6787 8.82227 25.9979L13.723 22.0487C13.723 22.0487 13.6516 22.5819 13.6573 22.9018ZM26.2504 24.6871C25.2407 25.7001 23.827 26.2745 22.2973 26.2775C20.7654 26.2801 19.3518 25.7109 18.342 24.6997C17.8485 24.207 17.4861 23.6399 17.2625 23.036C17.0434 22.4425 16.9583 21.8125 17.0147 21.1769C17.0681 20.5556 17.2559 19.963 17.5558 19.4268C17.8503 18.8997 18.256 18.4234 18.7569 18.0205C19.7385 17.2329 20.9881 16.8066 22.2951 16.8048C23.6034 16.8031 24.8522 17.2255 25.8346 18.0105C26.3347 18.4117 26.7399 18.8862 27.0345 19.4124C27.3356 19.9482 27.5221 20.5387 27.5777 21.1617C27.6333 21.7965 27.5482 22.4256 27.329 23.0195C27.105 23.6252 26.7439 24.1922 26.2504 24.6871Z" fill="#EA7600"/>
</svg>
