<svg width="40" height="40" viewBox="0 0 40 40" fill="none" xmlns="http://www.w3.org/2000/svg">
<path d="M40 20C40 31.0457 31.0457 40 20 40C8.9543 40 0 31.0457 0 20C0 8.9543 8.9543 0 20 0C31.0457 0 40 8.9543 40 20Z" fill="#242424"/>
<path fill-rule="evenodd" clip-rule="evenodd" d="M20.5 21.5C20.5 19.7741 21.8991 18.375 23.625 18.375C25.3509 18.375 26.75 19.7741 26.75 21.5C26.75 23.2259 25.3509 24.625 23.625 24.625C21.8991 24.625 20.5 23.2259 20.5 21.5Z" fill="#1ABCFE"/>
<path fill-rule="evenodd" clip-rule="evenodd" d="M14.25 27.75C14.25 26.0241 15.6491 24.625 17.375 24.625H20.5V27.75C20.5 29.4759 19.1009 30.875 17.375 30.875C15.6491 30.875 14.25 29.4759 14.25 27.75Z" fill="#0ACF83"/>
<path fill-rule="evenodd" clip-rule="evenodd" d="M20.5 12.125V18.375H23.625C25.3509 18.375 26.75 16.9759 26.75 15.25C26.75 13.5241 25.3509 12.125 23.625 12.125H20.5Z" fill="#FF7262"/>
<path fill-rule="evenodd" clip-rule="evenodd" d="M14.25 15.25C14.25 16.9759 15.6491 18.375 17.375 18.375H20.5V12.125H17.375C15.6491 12.125 14.25 13.5241 14.25 15.25Z" fill="#F24E1E"/>
<path fill-rule="evenodd" clip-rule="evenodd" d="M14.25 21.5C14.25 23.2259 15.6491 24.625 17.375 24.625H20.5V18.375H17.375C15.6491 18.375 14.25 19.7741 14.25 21.5Z" fill="#A259FF"/>
</svg>
