<svg width="40" height="40" viewBox="0 0 40 40" fill="none" xmlns="http://www.w3.org/2000/svg">
<path d="M40 20C40 31.0457 31.0457 40 20 40C8.9543 40 0 31.0457 0 20C0 8.9543 8.9543 0 20 0C31.0457 0 40 8.9543 40 20Z" fill="#242424"/>
<path d="M19.5375 23.7013H14.7818L13.8142 26.8074C13.7874 26.9228 13.6819 27.0045 13.5672 26.9988H11.1584C11.0211 26.9988 10.973 26.9208 11.0143 26.7648L15.1318 14.5109C15.173 14.3833 15.2142 14.2379 15.2553 14.0748C15.3092 13.791 15.3368 13.5025 15.3377 13.2132C15.3259 13.1278 15.4004 13.0523 15.4818 13.0643H18.7552C18.8511 13.0643 18.906 13.0998 18.9199 13.1707L23.5933 26.7861C23.6345 26.928 23.5933 26.9989 23.4697 26.9988H20.7933C20.6995 27.0096 20.6098 26.9447 20.5875 26.8499L19.5375 23.7013ZM15.523 21.0208H18.7758C18.2414 19.1809 17.6382 17.3651 17.1494 15.5108C16.622 17.3682 16.0466 19.2182 15.523 21.0208Z" fill="#FF9A00"/>
<path d="M26.3723 15.3193C26.1624 15.328 25.953 15.2908 25.7578 15.2102C25.5627 15.1295 25.3863 15.0072 25.24 14.8513C25.0942 14.6886 24.9809 14.4977 24.9067 14.2896C24.8325 14.0814 24.7988 13.8602 24.8076 13.6386C24.8002 13.4192 24.8376 13.2007 24.9174 12.9972C24.9972 12.7938 25.1177 12.61 25.2709 12.4579C25.4226 12.3074 25.6017 12.1895 25.7979 12.111C25.994 12.0325 26.2032 11.9949 26.4135 12.0005C26.9076 12.0005 27.2954 12.153 27.5767 12.4579C27.7187 12.6164 27.8291 12.8022 27.9015 13.0049C27.9739 13.2075 28.007 13.4228 27.9987 13.6386C28.0073 13.8611 27.9726 14.0831 27.8965 14.2914C27.8205 14.4997 27.7047 14.6901 27.5561 14.8513C27.4007 15.0095 27.2154 15.1328 27.0116 15.2133C26.8079 15.2939 26.5902 15.33 26.3723 15.3193ZM24.9518 26.786V16.617C24.9518 16.4894 25.0065 16.4255 25.1165 16.4255H27.6488C27.7585 16.4255 27.8134 16.4894 27.8135 16.617V26.786C27.8135 26.928 27.7586 26.9989 27.6488 26.9988H25.1371C25.0136 26.9988 24.9518 26.9278 24.9518 26.786Z" fill="#FF9A00"/>
</svg>
