<svg width="40" height="40" viewBox="0 0 40 40" fill="none" xmlns="http://www.w3.org/2000/svg">
<path d="M40 20C40 31.0457 31.0457 40 20 40C8.9543 40 0 31.0457 0 20C0 8.9543 8.9543 0 20 0C31.0457 0 40 8.9543 40 20Z" fill="#242424"/>
<path d="M11 26.6144V13.2213C11 13.1302 11.0395 13.0781 11.1317 13.0781C12.4928 13.0781 13.8533 13 15.2147 13C17.4239 13 19.8159 13.7278 20.6544 15.9546C20.8519 16.5012 20.9573 17.0609 20.9573 17.6466C20.9573 18.766 20.6939 19.6901 20.167 20.419C18.6954 22.455 16.1446 22.4234 13.8581 22.4234V26.6014C13.876 26.7251 13.7666 26.7836 13.6606 26.7836H11.1581C11.0527 26.7836 11 26.7316 11 26.6144ZM13.8713 15.5901V19.9634C14.7779 20.0274 15.7266 20.0343 16.5977 19.7551C17.5594 19.4879 18.086 18.6858 18.086 17.7247C18.1128 16.9057 17.6496 16.12 16.8611 15.8244C16.0005 15.4796 14.8003 15.459 13.8713 15.5901Z" fill="#31A8FF"/>
<path d="M29.1723 19.0994C28.7737 18.897 28.3493 18.749 27.9105 18.6593C27.3467 18.5315 25.1229 18.0838 25.122 19.2041C25.1418 19.8296 26.1723 20.1361 26.6276 20.3148C28.226 20.8435 30.0348 21.7886 29.9993 23.6886C30.0481 26.0538 27.6697 26.9993 25.6309 26.9995C24.5696 27.0101 23.4639 26.8517 22.4925 26.4127C22.3998 26.3654 22.3401 26.2643 22.3441 26.1613V23.8981C22.3336 23.8074 22.4347 23.7281 22.5138 23.7933C23.4655 24.3479 24.5936 24.6171 25.6946 24.6315C26.1806 24.6315 27.1438 24.5861 27.1365 23.8981C27.1365 23.2378 25.9842 22.9343 25.5249 22.7665C24.8591 22.5375 24.2278 22.2203 23.6482 21.8235C22.8383 21.2669 22.3303 20.3745 22.3441 19.3927C22.3394 17.1657 24.5287 16.1661 26.5004 16.1656C27.4221 16.1583 28.4119 16.2241 29.2699 16.5847C29.3933 16.6197 29.4189 16.7449 29.4184 16.8571V18.9736C29.4262 19.105 29.2748 19.1497 29.1723 19.0994Z" fill="#31A8FF"/>
</svg>
