<svg width="40" height="40" viewBox="0 0 40 40" fill="none" xmlns="http://www.w3.org/2000/svg">
<circle cx="20" cy="20" r="20" fill="#242424"/>
<path d="M14.3256 20.3939C10.7107 23.0034 10 26.8182 10 30C10.1648 29.0505 10.9207 26.8242 12.6263 25.5151C15.1598 23.5705 19.7943 24.2111 24.8615 20.9091C29.9286 17.607 30.423 13.303 29.7741 10C29.3233 13.1872 27.7848 14.5762 25.6648 15.8182C21.0612 18.5151 18.1877 17.606 14.3256 20.3939Z" fill="url(#paint0_linear_38_5450)"/>
<path d="M14.3256 20.3939C10.7107 23.0034 10 26.8182 10 30C10.1648 29.0505 10.9207 26.8242 12.6263 25.5151C15.1598 23.5705 19.7943 24.2111 24.8615 20.9091C29.9286 17.607 30.423 13.303 29.7741 10C29.3233 13.1872 27.7848 14.5762 25.6648 15.8182C21.0612 18.5151 18.1877 17.606 14.3256 20.3939Z" fill="url(#paint1_linear_38_5450)"/>
<path d="M10.0432 28.6957C10.2416 25.8207 11.1934 22.6549 14.3256 20.3939C16.339 18.9406 18.0837 18.4919 19.9449 18.0133C21.0311 17.734 22.1569 17.4445 23.399 16.9391C22.9459 17.3636 20.7926 18.3545 19.1683 19.0166C17.5483 19.677 15.8404 20.3732 14.4183 21.303C11.5651 23.1686 10.4049 26.4144 10.0432 28.6957Z" fill="url(#paint2_linear_38_5450)"/>
<path d="M10.0432 28.6957C10.2416 25.8207 11.1934 22.6549 14.3256 20.3939C16.339 18.9406 18.0837 18.4919 19.9449 18.0133C21.0311 17.734 22.1569 17.4445 23.399 16.9391C22.9459 17.3636 20.7926 18.3545 19.1683 19.0166C17.5483 19.677 15.8404 20.3732 14.4183 21.303C11.5651 23.1686 10.4049 26.4144 10.0432 28.6957Z" fill="url(#paint3_linear_38_5450)"/>
<path d="M27.6277 18.5493C27.2725 18.8906 26.8763 19.1962 26.4373 19.4545C24.4598 20.6182 22.358 20.9934 20.3129 21.3586C18.6832 21.6496 17.0894 21.9341 15.6233 22.606C12.3175 24.1211 10.2783 27.2728 10 30C9.99999 30.0001 10 29.9999 10 30C9.99999 29.9995 10 29.9988 10 29.9983C10 29.7901 10.0031 29.5792 10.0098 29.3662C10.0266 29.0281 10.0623 28.6536 10.1212 28.2542C10.5577 26.0114 11.7446 23.0512 14.4183 21.303C15.5501 20.5629 16.863 19.9709 18.1686 19.4271C19.3167 19.0574 20.3514 18.8273 21.3373 18.6081C22.8892 18.263 24.32 17.9449 25.8811 17.1515C29.1569 15.4867 30.0151 12.0656 29.7844 10.0532C30.2742 12.603 30.0762 15.7393 27.6277 18.5493Z" fill="url(#paint4_linear_38_5450)"/>
<path d="M27.6277 18.5493C27.2725 18.8906 26.8763 19.1962 26.4373 19.4545C24.4598 20.6182 22.358 20.9934 20.3129 21.3586C18.6832 21.6496 17.0894 21.9341 15.6233 22.606C13.7222 23.4773 12.24 24.8898 11.2707 26.4515C12.1259 25.2729 13.4288 23.9562 15.0363 23.4545C16.6048 22.965 18.101 22.9145 19.6554 22.8619C20.1009 22.8469 20.5512 22.8316 21.0093 22.8059C22.244 22.365 23.538 21.7715 24.8615 20.9091C26.0023 20.1657 26.9114 19.3714 27.6277 18.5493Z" fill="url(#paint5_linear_38_5450)"/>
<path d="M27.6277 18.5493C27.2725 18.8906 26.8763 19.1962 26.4373 19.4545C24.4598 20.6182 22.358 20.9934 20.3129 21.3586C18.6832 21.6496 17.0894 21.9341 15.6233 22.606C13.7222 23.4773 12.24 24.8898 11.2707 26.4515C12.1259 25.2729 13.4288 23.9562 15.0363 23.4545C16.6048 22.965 18.101 22.9145 19.6554 22.8619C20.1009 22.8469 20.5512 22.8316 21.0093 22.8059C22.244 22.365 23.538 21.7715 24.8615 20.9091C26.0023 20.1657 26.9114 19.3714 27.6277 18.5493Z" fill="url(#paint6_linear_38_5450)"/>
<path d="M29.7844 10.0532C29.781 10.0354 29.7776 10.0177 29.7741 10C29.3233 13.1872 27.7848 14.5762 25.6648 15.8182C24.8617 16.2887 24.1113 16.6494 23.399 16.9391C22.9459 17.3636 20.7926 18.3545 19.1683 19.0166C18.8378 19.1513 18.5033 19.2877 18.1686 19.4271C19.3167 19.0574 20.3514 18.8273 21.3373 18.6081C22.8892 18.263 24.32 17.9449 25.8811 17.1515C29.1569 15.4867 30.0151 12.0656 29.7844 10.0532Z" fill="url(#paint7_linear_38_5450)"/>
<path d="M29.7844 10.0532C29.781 10.0354 29.7776 10.0177 29.7741 10C29.3233 13.1872 27.7848 14.5762 25.6648 15.8182C24.8617 16.2887 24.1113 16.6494 23.399 16.9391C22.9459 17.3636 20.7926 18.3545 19.1683 19.0166C18.8378 19.1513 18.5033 19.2877 18.1686 19.4271C19.3167 19.0574 20.3514 18.8273 21.3373 18.6081C22.8892 18.263 24.32 17.9449 25.8811 17.1515C29.1569 15.4867 30.0151 12.0656 29.7844 10.0532Z" fill="url(#paint8_linear_38_5450)"/>
<defs>
<linearGradient id="paint0_linear_38_5450" x1="21.3083" y1="22.0303" x2="10.7597" y2="29.7394" gradientUnits="userSpaceOnUse">
<stop stop-color="#FE5004"/>
<stop offset="0.602538" stop-color="#FFB915"/>
<stop offset="1" stop-color="#FFFC41"/>
</linearGradient>
<linearGradient id="paint1_linear_38_5450" x1="17.0754" y1="22.6666" x2="17.1349" y2="23.7577" gradientUnits="userSpaceOnUse">
<stop stop-color="#FD3E00"/>
<stop offset="1" stop-color="#FD4400" stop-opacity="0"/>
</linearGradient>
<linearGradient id="paint2_linear_38_5450" x1="23.4093" y1="16.3939" x2="8.59065" y2="29.8312" gradientUnits="userSpaceOnUse">
<stop stop-color="#005FC6"/>
<stop offset="0.279756" stop-color="#23A4DF"/>
<stop offset="0.465158" stop-color="#3AC2B7"/>
<stop offset="0.640642" stop-color="#60EC7A"/>
<stop offset="0.818668" stop-color="#CFFDBD"/>
<stop offset="1" stop-color="#D0FCB6"/>
</linearGradient>
<linearGradient id="paint3_linear_38_5450" x1="20.3505" y1="18.9091" x2="19.0755" y2="17.7329" gradientUnits="userSpaceOnUse">
<stop stop-color="#0061CB"/>
<stop offset="1" stop-color="#067EEA" stop-opacity="0"/>
</linearGradient>
<linearGradient id="paint4_linear_38_5450" x1="29.8359" y1="10.0303" x2="10.3943" y2="30.347" gradientUnits="userSpaceOnUse">
<stop stop-color="#8E55F1"/>
<stop offset="0.140795" stop-color="#8B48DF"/>
<stop offset="0.274905" stop-color="#E04DD9"/>
<stop offset="0.492309" stop-color="#F496C8"/>
<stop offset="0.633104" stop-color="#FAD2BA"/>
<stop offset="0.856964" stop-color="#FEF7E5"/>
<stop offset="1" stop-color="#FFF5BF"/>
</linearGradient>
<linearGradient id="paint5_linear_38_5450" x1="27.8894" y1="18.3636" x2="11.8075" y2="25.7799" gradientUnits="userSpaceOnUse">
<stop stop-color="#F41A73"/>
<stop offset="0.399909" stop-color="#FC50A3"/>
<stop offset="0.584511" stop-color="#FE9485"/>
<stop offset="0.703104" stop-color="#FFAF88"/>
<stop offset="1" stop-color="#FFC385"/>
</linearGradient>
<linearGradient id="paint6_linear_38_5450" x1="22.0499" y1="20.5758" x2="22.0796" y2="22.0303" gradientUnits="userSpaceOnUse">
<stop stop-color="#9B0008"/>
<stop offset="1" stop-color="#EA115A" stop-opacity="0"/>
</linearGradient>
<linearGradient id="paint7_linear_38_5450" x1="29.8359" y1="11.6667" x2="15.3927" y2="21.2871" gradientUnits="userSpaceOnUse">
<stop stop-color="#231283"/>
<stop offset="0.362865" stop-color="#7053C6"/>
<stop offset="0.466353" stop-color="#7272DB"/>
<stop offset="0.634311" stop-color="#399EE9"/>
<stop offset="1" stop-color="#00CFFF"/>
</linearGradient>
<linearGradient id="paint8_linear_38_5450" x1="26.1901" y1="16.3939" x2="26.8233" y2="17.224" gradientUnits="userSpaceOnUse">
<stop stop-color="#3F259D" stop-opacity="0"/>
<stop offset="1" stop-color="#412DAA"/>
</linearGradient>
</defs>
</svg>
