<svg width="40" height="40" viewBox="0 0 40 40" fill="none" xmlns="http://www.w3.org/2000/svg">
<path d="M40 20C40 31.0457 31.0457 40 20 40C8.9543 40 0 31.0457 0 20C0 8.9543 8.9543 0 20 0C31.0457 0 40 8.9543 40 20Z" fill="#242424"/>
<path d="M21.0369 20.4794L24.6235 14.1495L26.3567 20.4794L24.6235 26.8079L21.0369 20.4794ZM19.2887 21.5074L22.876 27.8363L16.6286 26.2005L12.1152 21.5074H19.2887ZM22.8751 13.1208L19.2887 19.4507H12.1152L16.6286 14.7573L22.8751 13.1208ZM27.9954 18.3253L25.8072 10.0053L17.6401 12.235L16.4311 14.4075L13.9779 14.3895L8 20.48L13.9779 26.5691L16.4303 26.5506L17.641 28.723L25.8072 30.9524L27.9954 22.6339L26.7528 20.4794L27.9954 18.3253Z" fill="white"/>
</svg>
