<svg width="40" height="40" viewBox="0 0 40 40" fill="none" xmlns="http://www.w3.org/2000/svg">
<path d="M40 20C40 31.0457 31.0457 40 20 40C8.9543 40 0 31.0457 0 20C0 8.9543 8.9543 0 20 0C31.0457 0 40 8.9543 40 20Z" fill="#242424"/>
<path d="M24.0639 9.53239C24.0639 8.81824 23.2643 8.81823 22.909 8.9075C23.4065 8.51471 23.9899 8.60994 24.1972 8.72897L29.0018 11.0848C29.4596 11.3093 29.75 11.7764 29.75 12.2882V27.7863C29.75 28.305 29.4519 28.777 28.9848 28.9979L24.4637 31.1356C24.1528 31.2695 23.4776 31.5998 22.909 31.1356C23.6197 31.2695 24.0047 30.7636 24.0639 30.4214V9.53239Z" fill="url(#paint0_linear_38_5411)"/>
<path d="M22.9666 8.89458C23.3438 8.82005 24.0639 8.85465 24.0639 9.53239L24.0639 14.867L9.49729 25.8867C9.24268 26.0793 8.88435 26.0474 8.66748 25.8127L7.16618 24.1882C6.93099 23.9337 6.94745 23.5353 7.20282 23.3013L22.909 8.9075L22.9666 8.89458Z" fill="url(#paint1_linear_38_5411)"/>
<path d="M24.0639 25.1761L9.49729 14.1563C9.24268 13.9637 8.88435 13.9957 8.66748 14.2303L7.16618 15.8549C6.93099 16.1094 6.94745 16.5077 7.20282 16.7418L22.909 31.1356C23.6197 31.2695 24.0047 30.7636 24.0639 30.4214L24.0639 25.1761Z" fill="url(#paint2_linear_38_5411)"/>
<defs>
<linearGradient id="paint0_linear_38_5411" x1="7.93861" y1="15.1117" x2="24.1268" y2="28.5155" gradientUnits="userSpaceOnUse">
<stop stop-color="#1791D2"/>
<stop offset="1" stop-color="#1173C5"/>
</linearGradient>
<linearGradient id="paint1_linear_38_5411" x1="24.0639" y1="11.4963" x2="7.83014" y2="25.1228" gradientUnits="userSpaceOnUse">
<stop stop-color="#0F6FB3"/>
<stop offset="0.270551" stop-color="#1279B7"/>
<stop offset="0.421376" stop-color="#1176B5"/>
<stop offset="0.618197" stop-color="#0E69AC"/>
<stop offset="0.855344" stop-color="#0F70AF"/>
<stop offset="1" stop-color="#0F6DAD"/>
</linearGradient>
<linearGradient id="paint2_linear_38_5411" x1="7.93861" y1="15.1117" x2="24.1268" y2="28.5155" gradientUnits="userSpaceOnUse">
<stop stop-color="#1791D2"/>
<stop offset="1" stop-color="#1173C5"/>
</linearGradient>
</defs>
</svg>
