<svg width="138" height="115" viewBox="0 0 138 115" fill="none" xmlns="http://www.w3.org/2000/svg">
<path d="M70.8951 24.3432C74.3083 23.4452 76.3764 20.0608 75.5143 16.7838C74.6521 13.5068 71.1863 11.5782 67.7732 12.4762C64.36 13.3741 62.2919 16.7585 63.154 20.0355C64.0161 23.3125 67.4819 25.2411 70.8951 24.3432Z" fill="#32738F"/>
<path d="M70.3707 22.3493C72.838 21.7002 74.3648 19.3746 73.7809 17.1551C73.197 14.9355 70.7234 13.6624 68.2561 14.3115C65.7888 14.9606 64.2619 17.2861 64.8459 19.5057C65.4298 21.7253 67.9033 22.9984 70.3707 22.3493Z" fill="#E5A987"/>
<path fill-rule="evenodd" clip-rule="evenodd" d="M21.5729 85.991C16.4713 78.0733 11.4926 70.2142 7.31824 58.0891C6.28064 55.0742 10.5561 52.6918 11.8804 56.5126C15.1574 65.9628 18.2054 71.3034 22.5316 77.9389C24.1704 63.9969 28.2993 47.1496 32.7114 43.268C39.4157 37.3687 59.8642 35.8605 59.8642 35.8605C60.6971 31.5136 63.2205 25.6231 68.5273 25.8238C73.7114 25.5329 74.2558 30.8743 74.9955 34.8954C74.9955 34.8954 98.1661 36.8951 104.188 41.6298C111.058 47.0301 114.202 76.0615 110.914 81.7376C110.566 82.3395 105.491 82.8269 104.99 82.9013C78.058 86.8794 59.4762 86.2536 59.4486 98.0964C59.444 100.076 25.4149 97.8951 22.5662 95.1703C21.5821 94.228 21.3017 90.7572 21.5729 85.991Z" fill="#6FC1CC"/>
<path d="M9.03858 59.7859C12.5785 69.7246 16.681 76.6864 20.9254 83.3544C20.7658 86.5731 21.0705 92.0491 21.4662 93.663C21.7158 94.6793 22.1107 95.3863 22.5361 95.7943C22.8291 96.0748 23.3349 96.3843 24.0552 96.6549C25.2578 97.1069 27.2219 97.5459 29.637 97.9343C37.3801 99.1793 49.9131 99.9873 55.9744 99.7351C58.0493 99.6491 69.4189 99.2821 70.1041 99.1108C72.7481 98.7207 95.0547 95.98 99.529 94.4247C107.203 91.7579 110.585 91.2105 111.485 83.0307C111.601 81.9784 111.623 79.9654 111.858 78.0319C112.352 73.9774 112.12 67.9322 111.258 61.9039C110.52 56.7341 109.319 51.5782 107.742 47.6978C106.606 44.8983 105.24 42.742 103.759 41.5763C101.891 40.1071 98.4473 38.8493 94.5163 37.8679C87.3971 36.0908 78.6596 35.1182 75.6729 34.8192C75.3465 33.0076 74.9734 31.0614 74.2152 29.5017C73.1326 27.276 71.3651 25.7194 68.1847 25.8752C65.1244 25.7821 62.8357 27.3846 61.2172 29.6915C59.961 31.4821 59.1236 33.7053 58.6328 35.7427C55.8833 36.0014 48.1633 36.8582 41.541 38.824C37.8582 39.9172 34.5158 41.3714 32.4364 43.2025C31.0363 44.4355 29.6164 46.8767 28.3332 50.128C25.9069 56.277 23.821 65.429 22.5774 74.0456C22.4984 74.5891 22.3843 75.3113 22.2475 76.1313C18.6591 70.4822 15.9645 65.437 13.0876 57.1389C12.0163 54.049 8.96672 55.1238 8.54158 57.2585C8.57603 58.0666 8.74701 58.9399 9.03858 59.7859Z" fill="#6FC1CC"/>
<path d="M110.939 81.7661C116.787 76.4488 122.576 70.8107 128.604 62.1525C129.108 61.4129 129.503 60.6154 129.748 59.8448C129.9 57.6733 127.24 55.8345 125.394 58.534C120.479 65.7204 116.578 69.8701 111.691 74.3318C111.662 74.3109 111.619 74.3468 111.562 74.4496C111.605 74.4103 111.648 74.371 111.691 74.3318C112.082 74.6065 110.295 84.6909 110.939 81.7661Z" fill="#6FC1CC"/>
<path fill-rule="evenodd" clip-rule="evenodd" d="M29.4568 79.4889C31.9013 84.1174 101.207 81.1124 103.157 76.5212C106.266 69.2012 102.422 49.677 99.3926 46.5219C95.6432 42.6153 41.145 41.9536 36.3406 48.878C31.9006 55.2775 27.3398 75.4801 29.4568 79.4889Z" fill="#FFF9EA"/>
<path d="M41.5957 77.8268C45.3062 76.8506 47.5398 73.1158 46.5846 69.4848C45.6294 65.8538 41.847 63.7016 38.1365 64.6778C34.4259 65.6539 32.1923 69.3888 33.1476 73.0198C34.1028 76.6508 37.8852 78.8029 41.5957 77.8268Z" fill="#F09392"/>
<path d="M45.8614 60.3908C47.3583 59.997 48.2515 58.4605 47.8565 56.9589C47.4614 55.4572 45.9277 54.5591 44.4308 54.9529C42.9339 55.3467 42.0407 56.8833 42.4358 58.3849C42.8308 59.8866 44.3645 60.7846 45.8614 60.3908Z" fill="#393939"/>
<path d="M85.4285 59.2654C86.9254 58.8716 87.8187 57.335 87.4236 55.8334C87.0286 54.3317 85.4948 53.4337 83.9979 53.8275C82.5011 54.2213 81.6078 55.7578 82.0029 57.2594C82.3979 58.7611 83.9317 59.6592 85.4285 59.2654Z" fill="#393939"/>
<path fill-rule="evenodd" clip-rule="evenodd" d="M56.7467 62.5616C56.7467 62.5616 60.6704 64.3442 63.8305 64.9477C64.5369 65.0825 65.2059 65.1584 65.7835 65.1424C68.9457 65.0542 75.2263 61.9496 75.2263 61.9496C76.6268 61.4435 75.6476 59.2627 74.3224 59.8401C74.3224 59.8401 68.618 62.6135 65.9042 62.8429C63.2128 63.0701 58.2157 60.6105 58.2157 60.6105C56.879 60.2186 56.2754 61.8087 56.7467 62.5616Z" fill="#393939"/>
<path d="M95.4827 75.0597C99.1932 74.0835 101.427 70.3487 100.472 66.7177C99.5163 63.0867 95.734 60.9345 92.0234 61.9107C88.3129 62.8869 86.0793 66.6217 87.0346 70.2527C87.9898 73.8837 91.7721 76.0359 95.4827 75.0597Z" fill="#F09392"/>
</svg>
